<svg width="48" height="48" viewBox="0 0 48 48" fill="none" xmlns="http://www.w3.org/2000/svg">
<g id="arcticons:radiofrance">
<path id="Vector" d="M18.56 6.08001L27 5.48001V18H35.78C36.7608 17.9613 37.7395 18.1172 38.6597 18.4589C39.5798 18.8005 40.4232 19.3211 41.141 19.9906C41.8588 20.6601 42.4369 21.4651 42.8418 22.3593C43.2467 23.2534 43.4704 24.2189 43.5 25.2V25.68C43.5291 27.0814 43.1263 28.4578 42.3463 29.6224C41.5663 30.787 40.4469 31.6834 39.14 32.19H33.36C33.36 32.19 37.26 30.47 37.26 27.73C37.26 25.48 35.47 23.73 32.19 23.6C28.91 23.47 18.56 23 18.56 23V6.08001ZM6.89 21.43L12.15 21.72C11.5316 22.7453 11.1395 23.8909 11 25.08C11 28.81 16.75 32.19 22.7 32.19C24.1178 32.2508 25.5373 32.1197 26.92 31.8L27.66 42.52C27.66 42.52 4.5 39.88 4.5 27.57C4.5 22.87 6.89 21.43 6.89 21.43V21.43Z" stroke="#3781E3" stroke-width="2" stroke-linecap="round" stroke-linejoin="round"/>
</g>
</svg>
