<svg width="48" height="48" viewBox="0 0 48 48" fill="none" xmlns="http://www.w3.org/2000/svg">
<path d="M26.7799 18.07C28.3527 18.07 29.861 18.6947 30.9731 19.8068C32.0852 20.9189 32.7099 22.4272 32.7099 24C32.7099 25.5727 32.0852 27.081 30.9731 28.1931C29.861 29.3052 28.3527 29.93 26.7799 29.93M26.7699 7.15997C31.2362 7.15997 35.5195 8.93418 38.6776 12.0923C41.8357 15.2504 43.6099 19.5337 43.6099 24C43.6099 28.4662 41.8357 32.7495 38.6776 35.9076C35.5195 39.0658 31.2362 40.84 26.7699 40.84V7.15997ZM26.7699 35.22C29.7457 35.22 32.5995 34.0379 34.7037 31.9337C36.8078 29.8296 37.9899 26.9757 37.9899 24C37.9899 21.0242 36.8078 18.1704 34.7037 16.0662C32.5995 13.9621 29.7457 12.78 26.7699 12.78V35.22ZM19.9999 7.50997C20.7699 7.39997 21.1599 8.21997 21.1599 9.96997V38C21.1599 40.81 20.1599 41.21 18.1599 39.24L5.71994 26.81C5.0019 26.0506 4.60181 25.0451 4.60181 24C4.60181 22.9549 5.0019 21.9494 5.71994 21.19L18.1799 8.72997C18.6572 8.15732 19.2889 7.73386 19.9999 7.50997V7.50997Z" stroke="#3781E3" stroke-width="2" stroke-linecap="round" stroke-linejoin="round"/>
</svg>
