<svg width="42" height="42" viewBox="0 0 42 42" fill="none" xmlns="http://www.w3.org/2000/svg">
<g id="carbon:hotel">
<path id="Vector" d="M12.4688 19.6875C12.8581 19.6875 13.2388 19.803 13.5625 20.0193C13.8863 20.2356 14.1386 20.5431 14.2876 20.9028C14.4366 21.2626 14.4756 21.6584 14.3997 22.0403C14.3237 22.4222 14.1362 22.773 13.8609 23.0484C13.5855 23.3237 13.2347 23.5112 12.8528 23.5872C12.4709 23.6631 12.0751 23.6241 11.7153 23.4751C11.3556 23.3261 11.0481 23.0738 10.8318 22.75C10.6155 22.4263 10.5 22.0456 10.5 21.6562C10.5 21.1341 10.7074 20.6333 11.0766 20.2641C11.4458 19.8949 11.9466 19.6875 12.4688 19.6875ZM12.4688 17.0625C11.5602 17.0625 10.672 17.3319 9.9166 17.8367C9.16116 18.3415 8.57237 19.0589 8.22468 19.8983C7.87699 20.7377 7.78602 21.6613 7.96327 22.5524C8.14052 23.4435 8.57803 24.2621 9.22048 24.9045C9.86293 25.547 10.6815 25.9845 11.5726 26.1617C12.4637 26.339 13.3873 26.248 14.2267 25.9003C15.0661 25.5526 15.7835 24.9638 16.2883 24.2084C16.7931 23.453 17.0625 22.5648 17.0625 21.6562C17.0625 20.4379 16.5785 19.2695 15.717 18.408C14.8555 17.5465 13.6871 17.0625 12.4688 17.0625Z" fill="#3781E3"/>
<path id="Vector_2" d="M32.8125 18.375H22.3125C21.6163 18.375 20.9486 18.6516 20.4563 19.1439C19.9641 19.6361 19.6875 20.3038 19.6875 21V28.875H5.25V13.9125L21 5.43376L37.4456 14.28L38.6794 11.97L21.6169 2.78251C21.427 2.68139 21.2151 2.62851 21 2.62851C20.7849 2.62851 20.573 2.68139 20.3831 2.78251L3.32062 11.97C3.11105 12.0816 2.93567 12.248 2.81316 12.4514C2.69066 12.6548 2.62563 12.8876 2.625 13.125V39.375H5.25V31.5H36.75V39.375H39.375V24.9375C39.375 23.197 38.6836 21.5278 37.4529 20.2971C36.2222 19.0664 34.553 18.375 32.8125 18.375ZM22.3125 28.875V21H32.8125C33.8568 21 34.8583 21.4149 35.5967 22.1533C36.3352 22.8917 36.75 23.8932 36.75 24.9375V28.875H22.3125Z" fill="#3781E3"/>
</g>
</svg>
