<svg width="36" height="37" viewBox="0 0 36 37" fill="none" xmlns="http://www.w3.org/2000/svg">
<g id="carbon:hospital-bed">
<path id="Vector" d="M28.125 18.5H19.125C18.5284 18.5006 17.9565 18.7444 17.5347 19.178C17.1128 19.6115 16.8756 20.1994 16.875 20.8125V27.75H4.5V16.1875H2.25V34.6875H4.5V30.0625H31.5V34.6875H33.75V24.2812C33.7482 22.7485 33.155 21.2791 32.1005 20.1953C31.046 19.1115 29.6163 18.5018 28.125 18.5ZM31.5 27.75H19.125V20.8125H28.125C29.0198 20.8134 29.8778 21.1792 30.5105 21.8295C31.1432 22.4798 31.4991 23.3616 31.5 24.2812V27.75Z" fill="#488FDD"/>
<path id="Vector_2" d="M10.6875 19.6562C11.0213 19.6562 11.3475 19.758 11.625 19.9485C11.9025 20.1391 12.1188 20.41 12.2465 20.7269C12.3743 21.0438 12.4077 21.3925 12.3426 21.729C12.2775 22.0654 12.1167 22.3745 11.8807 22.617C11.6447 22.8596 11.3441 23.0248 11.0167 23.0917C10.6894 23.1586 10.3501 23.1242 10.0417 22.993C9.73337 22.8617 9.46982 22.6394 9.2844 22.3542C9.09897 22.069 9 21.7337 9 21.3906C9.0006 20.9308 9.17858 20.49 9.49492 20.1649C9.81125 19.8398 10.2401 19.6569 10.6875 19.6562ZM10.6875 17.3438C9.90874 17.3438 9.14746 17.5811 8.49994 18.0258C7.85243 18.4704 7.34775 19.1025 7.04973 19.842C6.75171 20.5814 6.67373 21.3951 6.82566 22.1801C6.97759 22.9651 7.3526 23.6862 7.90327 24.2522C8.45394 24.8182 9.15553 25.2036 9.91933 25.3597C10.6831 25.5159 11.4748 25.4357 12.1943 25.1294C12.9138 24.8232 13.5288 24.3045 13.9614 23.6389C14.3941 22.9734 14.625 22.191 14.625 21.3906C14.625 20.3173 14.2102 19.288 13.4717 18.5291C12.7333 17.7701 11.7318 17.3438 10.6875 17.3438ZM23.625 6.9375H19.125V2.3125H16.875V6.9375H12.375V9.25H16.875V13.875H19.125V9.25H23.625V6.9375Z" fill="#488FDD"/>
</g>
</svg>
