<svg width="40" height="40" viewBox="0 0 40 40" fill="none" xmlns="http://www.w3.org/2000/svg">
<g id="fluent:dentist-48-regular">
<path id="Vector" d="M26.3834 10.2033C26.1071 10.2033 25.8421 10.313 25.6468 10.5084C25.4514 10.7037 25.3417 10.9687 25.3417 11.245C25.3417 11.5212 25.4514 11.7862 25.6468 11.9815C25.8421 12.1769 26.1071 12.2866 26.3834 12.2866C27.4417 12.2866 28.665 13.3141 28.7959 14.7475C28.8209 15.0226 28.9543 15.2766 29.1666 15.4534C29.3789 15.6302 29.6528 15.7155 29.9279 15.6904C30.2031 15.6653 30.457 15.5319 30.6339 15.3196C30.8107 15.1073 30.8959 14.8335 30.8709 14.5583C30.6509 12.1583 28.6234 10.2033 26.3825 10.2033H26.3834ZM17.725 6.85663C15.785 5.0533 13.4484 4.7908 11.4075 5.23746C9.40169 5.6758 7.59919 6.8083 6.51753 7.95413C5.18419 9.36496 3.93169 11.1733 3.82586 13.7858V13.7925C3.78086 15.0783 3.94836 16.9775 4.97253 18.3883L5.08753 18.5483C6.11669 19.9733 6.72503 20.8166 7.02669 21.6616L7.02919 21.6683C7.37419 22.6133 7.38336 23.5541 7.39586 24.8891L7.39919 25.2475C7.41753 27.0975 7.94503 30.0675 9.36086 32.2358C10.0442 33.2841 10.9817 34.2133 12.2359 34.6791L12.2842 34.6975L12.3342 34.71C13.3317 34.9733 14.2759 34.9183 15.04 34.3533C15.7534 33.8258 16.1 33.0016 16.3009 32.235C16.505 31.4508 16.6034 30.5325 16.6809 29.6233C16.7034 29.3566 16.7242 29.0916 16.745 28.8258C16.7984 28.1508 16.8509 27.4741 16.9334 26.7908C16.9906 26.2932 17.0693 25.7983 17.1692 25.3075C17.4609 23.9133 17.7959 23.1058 18.1184 22.6266C18.4034 22.2016 18.6909 22.0158 19.01 21.9008C19.9559 21.6616 20.555 21.785 20.9617 22.0158C21.3984 22.2633 21.7775 22.7258 22.0925 23.445C22.74 24.925 22.9242 27.0158 23.0784 28.9041V28.9066C23.2367 30.785 23.6317 32.4991 24.3717 33.6033C24.7525 34.1716 25.2917 34.6775 26.0275 34.855C26.7792 35.0366 27.5167 34.8241 28.17 34.405L28.1709 34.4041C30.5625 32.8666 31.9434 29.5816 32.3209 25.3958C32.4792 23.6225 32.6867 22.6833 33.0125 21.8591C33.2767 21.1925 33.6184 20.5908 34.14 19.6741L34.1417 19.6725C34.3009 19.3916 34.4784 19.0808 34.675 18.73C35.2117 17.7766 36.0759 16.0566 36.1725 14.0491C36.2725 11.9675 35.54 9.67246 33.07 7.69163C30.7117 5.7808 28.52 5.0858 26.5642 5.18996C24.6242 5.2933 23.0709 6.17413 21.9617 7.12996L21.9359 7.15246L21.9117 7.1758C20.8225 8.24413 20.3109 8.44663 19.9675 8.43163C19.5842 8.41496 18.9784 8.11663 17.755 6.8858L17.7409 6.8708L17.725 6.85663ZM8.03169 9.38496C8.84169 8.52746 10.2767 7.61746 11.8525 7.27246C13.3875 6.93663 14.9692 7.14746 16.2925 8.36913C17.4725 9.55496 18.5959 10.4575 19.8767 10.5133C21.1942 10.5716 22.285 9.72496 23.345 8.6883C24.2159 7.94496 25.3367 7.34163 26.675 7.26996C28.0084 7.19913 29.71 7.64996 31.76 9.31163L31.765 9.3158C33.7009 10.8675 34.16 12.5141 34.0909 13.9491C34.0192 15.4575 33.355 16.8275 32.8584 17.7075L32.8567 17.7108C32.69 18.0108 32.53 18.2916 32.3784 18.5566C31.835 19.51 31.3984 20.2775 31.0759 21.0925C30.6442 22.1825 30.4134 23.3475 30.245 25.2091C29.8884 29.1741 28.62 31.6391 27.045 32.6508C26.7117 32.865 26.5567 32.8391 26.5167 32.83C26.4609 32.8166 26.3092 32.7525 26.1025 32.4441C25.6667 31.7941 25.305 30.5216 25.1542 28.7333V28.7325L25.1475 28.6533C25.0025 26.8733 24.8042 24.445 24.0009 22.6091C23.5834 21.6558 22.9575 20.7525 21.99 20.2033C20.9984 19.6416 19.8059 19.54 18.4442 19.895L18.4075 19.905L18.3717 19.9175C17.63 20.17 16.9517 20.6275 16.3884 21.465C15.8525 22.2625 15.4467 23.3675 15.13 24.8816C15.0175 25.4312 14.9288 25.9853 14.8642 26.5425C14.7775 27.2725 14.7192 28.0141 14.6642 28.7041C14.645 28.96 14.625 29.2091 14.605 29.4466C14.5275 30.3575 14.44 31.115 14.285 31.7083C14.125 32.32 13.9384 32.5766 13.8017 32.6775C13.7184 32.7391 13.505 32.855 12.915 32.7083C12.2234 32.4375 11.6192 31.885 11.105 31.0975C9.97753 29.37 9.49836 26.8325 9.48253 25.2258V25.2241L9.47919 24.8216C9.47086 23.56 9.46086 22.2566 8.98753 20.9575C8.58169 19.8241 7.80169 18.745 6.88003 17.4716L6.66086 17.1683L6.65919 17.1658C6.05086 16.3283 5.86753 15.0133 5.90669 13.8666C5.98503 11.965 6.87086 10.6141 8.03169 9.38496ZM19.01 21.9008L18.9709 21.9108L19.0442 21.8891C19.0328 21.8929 19.0214 21.8968 19.01 21.9008Z" fill="#3781E3"/>
</g>
</svg>
