<svg width="48" height="48" viewBox="0 0 48 48" fill="none" xmlns="http://www.w3.org/2000/svg">
<g id="healthicons:ambulance-outline">
<g id="Group">
<path id="Vector" fill-rule="evenodd" clip-rule="evenodd" d="M4 17C4 16.2044 4.31607 15.4413 4.87868 14.8787C5.44129 14.3161 6.20435 14 7 14H27C27.7956 14 28.5587 14.3161 29.1213 14.8787C29.6839 15.4413 30 16.2044 30 17V19H35.718C36.4723 19.0001 37.1989 19.2843 37.753 19.796L43.035 24.671C43.3394 24.952 43.5822 25.293 43.7483 25.6725C43.9144 26.052 44.0001 26.4618 44 26.876V35H38V33H42V26.876C42 26.7379 41.9714 26.6013 41.916 26.4748C41.8605 26.3483 41.7795 26.2346 41.678 26.141L36.396 21.265C36.2113 21.0946 35.9693 21 35.718 21H30V33H32V35H15V33H28V17C28 16.7348 27.8946 16.4804 27.7071 16.2929C27.5196 16.1054 27.2652 16 27 16H7C6.73478 16 6.48043 16.1054 6.29289 16.2929C6.10536 16.4804 6 16.7348 6 17V33H9V35H4V17Z" fill="#3781E3"/>
<path id="Vector_2" fill-rule="evenodd" clip-rule="evenodd" d="M12 36C12.5304 36 13.0391 35.7893 13.4142 35.4142C13.7893 35.0391 14 34.5304 14 34C14 33.4696 13.7893 32.9609 13.4142 32.5858C13.0391 32.2107 12.5304 32 12 32C11.4696 32 10.9609 32.2107 10.5858 32.5858C10.2107 32.9609 10 33.4696 10 34C10 34.5304 10.2107 35.0391 10.5858 35.4142C10.9609 35.7893 11.4696 36 12 36ZM12 38C13.0609 38 14.0783 37.5786 14.8284 36.8284C15.5786 36.0783 16 35.0609 16 34C16 32.9391 15.5786 31.9217 14.8284 31.1716C14.0783 30.4214 13.0609 30 12 30C10.9391 30 9.92172 30.4214 9.17157 31.1716C8.42143 31.9217 8 32.9391 8 34C8 35.0609 8.42143 36.0783 9.17157 36.8284C9.92172 37.5786 10.9391 38 12 38ZM35 36C35.5304 36 36.0391 35.7893 36.4142 35.4142C36.7893 35.0391 37 34.5304 37 34C37 33.4696 36.7893 32.9609 36.4142 32.5858C36.0391 32.2107 35.5304 32 35 32C34.4696 32 33.9609 32.2107 33.5858 32.5858C33.2107 32.9609 33 33.4696 33 34C33 34.5304 33.2107 35.0391 33.5858 35.4142C33.9609 35.7893 34.4696 36 35 36ZM35 38C36.0609 38 37.0783 37.5786 37.8284 36.8284C38.5786 36.0783 39 35.0609 39 34C39 32.9391 38.5786 31.9217 37.8284 31.1716C37.0783 30.4214 36.0609 30 35 30C33.9391 30 32.9217 30.4214 32.1716 31.1716C31.4214 31.9217 31 32.9391 31 34C31 35.0609 31.4214 36.0783 32.1716 36.8284C32.9217 37.5786 33.9391 38 35 38ZM43 28H29V26H43V28ZM16 27V19H18V27H16ZM33 16C33.2652 16 33.5196 16.1054 33.7071 16.2929C33.8946 16.4804 34 16.7348 34 17V20H32V17C32 16.7348 32.1054 16.4804 32.2929 16.2929C32.4804 16.1054 32.7348 16 33 16Z" fill="#3781E3"/>
<path id="Vector_3" fill-rule="evenodd" clip-rule="evenodd" d="M21 24H13V22H21V24ZM35 20H31V18H35V20ZM33 13.5C32.7348 13.5 32.4804 13.3946 32.2929 13.2071C32.1054 13.0196 32 12.7652 32 12.5V11C32 10.7348 32.1054 10.4804 32.2929 10.2929C32.4804 10.1054 32.7348 10 33 10C33.2652 10 33.5196 10.1054 33.7071 10.2929C33.8946 10.4804 34 10.7348 34 11V12.5C34 12.7652 33.8946 13.0196 33.7071 13.2071C33.5196 13.3946 33.2652 13.5 33 13.5ZM36.5 17C36.5 16.7348 36.6054 16.4804 36.7929 16.2929C36.9804 16.1054 37.2348 16 37.5 16H39C39.2652 16 39.5196 16.1054 39.7071 16.2929C39.8946 16.4804 40 16.7348 40 17C40 17.2652 39.8946 17.5196 39.7071 17.7071C39.5196 17.8946 39.2652 18 39 18H37.5C37.2348 18 36.9804 17.8946 36.7929 17.7071C36.6054 17.5196 36.5 17.2652 36.5 17ZM35.759 14.171C35.5811 13.9744 35.4886 13.7153 35.5017 13.4505C35.5148 13.1857 35.6326 12.937 35.829 12.759L36.743 11.931C36.8402 11.8424 36.954 11.7739 37.0778 11.7293C37.2015 11.6848 37.3329 11.6651 37.4643 11.6714C37.5957 11.6777 37.7245 11.7098 37.8435 11.766C37.9624 11.8222 38.0691 11.9013 38.1574 11.9988C38.2458 12.0962 38.314 12.2102 38.3582 12.334C38.4024 12.4579 38.4218 12.5893 38.4152 12.7207C38.4085 12.8521 38.376 12.9808 38.3195 13.0996C38.2631 13.2184 38.1837 13.3249 38.086 13.413L37.172 14.241C37.0746 14.3292 36.9609 14.3974 36.8372 14.4416C36.7134 14.4859 36.5822 14.5053 36.451 14.4988C36.3198 14.4923 36.1911 14.46 36.0724 14.4038C35.9536 14.3475 35.8472 14.2684 35.759 14.171Z" fill="#3781E3"/>
</g>
</g>
</svg>
