<svg aria-hidden="true" style="position: absolute; width: 0; height: 0; overflow: hidden;" version="1.1" xmlns="http://www.w3.org/2000/svg" xmlns:xlink="http://www.w3.org/1999/xlink">
<defs>
<symbol id="icon-arcticons_radiodroid" viewBox="0 0 32 32">
<path stroke-linejoin="round" stroke-linecap="round" stroke-miterlimit="4" stroke-width="1.3333" d="M17.853 12.047c1.049 0 2.054 0.416 2.795 1.158s1.158 1.747 1.158 2.795c0 1.048-0.416 2.054-1.158 2.795s-1.747 1.158-2.795 1.158M17.847 4.773c2.978 0 5.833 1.183 7.938 3.288s3.288 4.961 3.288 7.938c0 2.977-1.183 5.833-3.288 7.938s-4.961 3.288-7.938 3.288v-22.453zM17.847 23.48c1.984 0 3.886-0.788 5.289-2.191s2.191-3.305 2.191-5.289c0-1.984-0.788-3.886-2.191-5.289s-3.305-2.191-5.289-2.191v14.96zM13.333 5.007c0.513-0.073 0.773 0.473 0.773 1.64v18.687c0 1.873-0.667 2.14-2 0.827l-8.293-8.287c-0.479-0.506-0.745-1.177-0.745-1.873s0.267-1.367 0.745-1.873l8.307-8.307c0.318-0.382 0.739-0.664 1.213-0.813v0z"></path>
</symbol>
<symbol id="icon-arcticons_radiofrance" viewBox="0 0 32 32">
<path stroke-linejoin="round" stroke-linecap="round" stroke-miterlimit="4" stroke-width="1.3333" d="M12.373 4.053l5.627-0.4v8.347h5.853c0.654-0.026 1.306 0.078 1.92 0.306s1.176 0.575 1.654 1.021 0.864 0.983 1.134 1.579c0.27 0.596 0.419 1.24 0.439 1.894v0.32c0.019 0.934-0.249 1.852-0.769 2.628s-1.266 1.374-2.138 1.712h-3.853c0 0 2.6-1.147 2.6-2.973 0-1.5-1.193-2.667-3.38-2.753s-9.087-0.4-9.087-0.4v-11.28zM4.593 14.287l3.507 0.193c-0.412 0.684-0.674 1.447-0.767 2.24 0 2.487 3.833 4.74 7.8 4.74 0.945 0.041 1.892-0.047 2.813-0.26l0.493 7.147c0 0-15.44-1.76-15.44-9.967 0-3.133 1.593-4.093 1.593-4.093v0z"></path>
</symbol>
<symbol id="icon-carbon_hospital-bed" viewBox="0 0 32 32">
<path d="M24.757 16h-7.784c-0.516 0.001-1.011 0.211-1.375 0.586s-0.57 0.883-0.571 1.414v6h-10.703v-10h-1.946v16h1.946v-4h23.351v4h1.946v-9c-0.002-1.326-0.515-2.596-1.427-3.534s-2.148-1.465-3.438-1.466zM27.676 24h-10.703v-6h7.784c0.774 0.001 1.516 0.317 2.063 0.88s0.855 1.325 0.856 2.12v3z"></path>
<path d="M9.676 17c0.289 0 0.571 0.088 0.811 0.253s0.427 0.399 0.537 0.673c0.111 0.274 0.139 0.576 0.083 0.867s-0.195 0.558-0.399 0.768c-0.204 0.21-0.464 0.353-0.747 0.411s-0.577 0.028-0.843-0.085c-0.267-0.114-0.495-0.306-0.655-0.552s-0.246-0.537-0.246-0.833c0.001-0.398 0.154-0.779 0.428-1.060s0.644-0.439 1.031-0.44zM9.676 15c-0.674 0-1.332 0.205-1.892 0.59s-0.997 0.931-1.254 1.571c-0.258 0.639-0.325 1.343-0.194 2.022s0.456 1.303 0.932 1.792c0.476 0.489 1.083 0.823 1.744 0.958s1.345 0.066 1.968-0.199c0.622-0.265 1.154-0.713 1.528-1.289s0.574-1.252 0.574-1.944c0-0.928-0.359-1.818-0.997-2.475s-1.505-1.025-2.408-1.025zM20.865 6h-3.892v-4h-1.946v4h-3.892v2h3.892v4h1.946v-4h3.892v-2z"></path>
</symbol>
<symbol id="icon-carbon_hotel" viewBox="0 0 32 32">
<path d="M9.5 15c0.297 0 0.587 0.088 0.833 0.253s0.439 0.399 0.552 0.673c0.114 0.274 0.143 0.576 0.085 0.867s-0.201 0.558-0.411 0.768c-0.21 0.21-0.477 0.353-0.768 0.41s-0.593 0.028-0.867-0.085c-0.274-0.114-0.508-0.306-0.673-0.552s-0.253-0.537-0.253-0.833c0-0.398 0.158-0.779 0.439-1.061s0.663-0.439 1.061-0.439zM9.5 13c-0.692 0-1.369 0.205-1.945 0.59s-1.024 0.931-1.289 1.571c-0.265 0.64-0.334 1.343-0.199 2.022s0.468 1.303 0.958 1.792c0.489 0.49 1.113 0.823 1.792 0.958s1.383 0.066 2.022-0.199 1.186-0.714 1.571-1.289c0.385-0.576 0.59-1.252 0.59-1.945 0-0.928-0.369-1.818-1.025-2.475s-1.547-1.025-2.475-1.025z"></path>
<path d="M25 14h-8c-0.53 0-1.039 0.211-1.414 0.586s-0.586 0.884-0.586 1.414v6h-11v-11.4l12-6.46 12.53 6.74 0.94-1.76-13-7c-0.145-0.077-0.306-0.117-0.47-0.117s-0.325 0.040-0.47 0.117l-13 7c-0.16 0.085-0.293 0.212-0.387 0.367s-0.143 0.332-0.143 0.513v20h2v-6h24v6h2v-11c0-1.326-0.527-2.598-1.464-3.536s-2.209-1.464-3.536-1.464zM17 22v-6h8c0.796 0 1.559 0.316 2.121 0.879s0.879 1.326 0.879 2.121v3h-11z"></path>
</symbol>
<symbol id="icon-fluent_dentist-48-regular" viewBox="0 0 32 32">
<path d="M21.107 8.163c-0.221 0-0.433 0.088-0.589 0.244s-0.244 0.368-0.244 0.589c0 0.221 0.088 0.433 0.244 0.589s0.368 0.244 0.589 0.244c0.847 0 1.825 0.822 1.93 1.969 0.020 0.22 0.127 0.423 0.297 0.565s0.389 0.21 0.609 0.19c0.22-0.020 0.423-0.127 0.565-0.297s0.21-0.389 0.19-0.609c-0.176-1.92-1.798-3.484-3.591-3.484h0.001zM14.18 5.485c-1.552-1.443-3.421-1.653-5.054-1.295-1.605 0.351-3.047 1.257-3.912 2.173-1.067 1.129-2.069 2.575-2.153 4.665v0.005c-0.036 1.029 0.098 2.548 0.917 3.677l0.092 0.128c0.823 1.14 1.31 1.815 1.551 2.491l0.002 0.005c0.276 0.756 0.283 1.509 0.293 2.577l0.003 0.287c0.015 1.48 0.437 3.856 1.569 5.591 0.547 0.839 1.297 1.582 2.3 1.955l0.039 0.015 0.040 0.010c0.798 0.211 1.553 0.167 2.165-0.285 0.571-0.422 0.848-1.081 1.009-1.695 0.163-0.627 0.242-1.362 0.304-2.089 0.018-0.213 0.035-0.425 0.051-0.638 0.043-0.54 0.085-1.081 0.151-1.628 0.046-0.398 0.109-0.794 0.189-1.187 0.233-1.115 0.501-1.761 0.759-2.145 0.228-0.34 0.458-0.489 0.713-0.581 0.757-0.191 1.236-0.093 1.561 0.092 0.349 0.198 0.653 0.568 0.905 1.143 0.518 1.184 0.665 2.857 0.789 4.367v0.002c0.127 1.503 0.443 2.874 1.035 3.757 0.305 0.455 0.736 0.859 1.325 1.001 0.601 0.145 1.191-0.025 1.714-0.36l0.001-0.001c1.913-1.23 3.018-3.858 3.32-7.207 0.127-1.419 0.293-2.17 0.553-2.829 0.211-0.533 0.485-1.015 0.902-1.748l0.001-0.001c0.127-0.225 0.269-0.473 0.427-0.754 0.429-0.763 1.121-2.139 1.198-3.745 0.080-1.665-0.506-3.501-2.482-5.086-1.887-1.529-3.64-2.085-5.205-2.001-1.552 0.083-2.795 0.787-3.682 1.552l-0.021 0.018-0.019 0.019c-0.871 0.855-1.281 1.017-1.555 1.005-0.307-0.013-0.791-0.252-1.77-1.237l-0.011-0.012-0.013-0.011zM6.425 7.508c0.648-0.686 1.796-1.414 3.057-1.69 1.228-0.269 2.493-0.1 3.552 0.877 0.944 0.949 1.843 1.671 2.867 1.715 1.054 0.047 1.927-0.631 2.775-1.46 0.697-0.595 1.593-1.077 2.664-1.135 1.067-0.057 2.428 0.304 4.068 1.633l0.004 0.003c1.549 1.241 1.916 2.559 1.861 3.707-0.057 1.207-0.589 2.303-0.986 3.007l-0.001 0.003c-0.133 0.24-0.261 0.465-0.383 0.677-0.435 0.763-0.784 1.377-1.042 2.029-0.345 0.872-0.53 1.804-0.665 3.293-0.285 3.172-1.3 5.144-2.56 5.953-0.267 0.171-0.391 0.151-0.423 0.143-0.045-0.011-0.166-0.062-0.331-0.309-0.349-0.52-0.638-1.538-0.759-2.969v-0.001l-0.005-0.063c-0.116-1.424-0.275-3.367-0.917-4.835-0.334-0.763-0.835-1.485-1.609-1.925-0.793-0.449-1.747-0.531-2.837-0.247l-0.029 0.008-0.029 0.010c-0.593 0.202-1.136 0.568-1.587 1.238-0.429 0.638-0.753 1.522-1.007 2.733-0.090 0.44-0.161 0.883-0.213 1.329-0.069 0.584-0.116 1.177-0.16 1.729-0.015 0.205-0.031 0.404-0.047 0.594-0.062 0.729-0.132 1.335-0.256 1.809-0.128 0.489-0.277 0.695-0.387 0.775-0.067 0.049-0.237 0.142-0.709 0.025-0.553-0.217-1.037-0.659-1.448-1.289-0.902-1.382-1.285-3.412-1.298-4.697v-0.001l-0.003-0.322c-0.007-1.009-0.015-2.052-0.393-3.091-0.325-0.907-0.949-1.77-1.686-2.789l-0.177-0.245c-0.487-0.67-0.633-1.722-0.602-2.639 0.063-1.521 0.771-2.602 1.7-3.585zM15.208 17.521l-0.031 0.008 0.059-0.017c-0.009 0.003-0.018 0.006-0.027 0.009z"></path>
</symbol>
<symbol id="icon-healthicons_ambulance-outline" viewBox="0 0 32 32">
<path d="M2.667 11.333c0-0.53 0.211-1.039 0.586-1.414s0.884-0.586 1.414-0.586h13.333c0.53 0 1.039 0.211 1.414 0.586s0.586 0.884 0.586 1.414v1.333h3.812c0.503 0 0.987 0.19 1.357 0.531l3.521 3.25c0.203 0.187 0.365 0.415 0.476 0.668s0.168 0.526 0.168 0.802v5.416h-4v-1.333h2.667v-4.083c0-0.092-0.019-0.183-0.056-0.267s-0.091-0.16-0.159-0.223l-3.521-3.251c-0.123-0.114-0.284-0.177-0.452-0.177h-3.812v8h1.333v1.333h-11.333v-1.333h8.667v-10.667c0-0.177-0.070-0.346-0.195-0.471s-0.295-0.195-0.471-0.195h-13.333c-0.177 0-0.346 0.070-0.471 0.195s-0.195 0.295-0.195 0.471v10.667h2v1.333h-3.333v-12z"></path>
<path d="M8 24c0.354 0 0.693-0.14 0.943-0.391s0.391-0.589 0.391-0.943c0-0.354-0.14-0.693-0.391-0.943s-0.589-0.391-0.943-0.391c-0.354 0-0.693 0.14-0.943 0.391s-0.391 0.589-0.391 0.943c0 0.354 0.14 0.693 0.391 0.943s0.589 0.391 0.943 0.391zM8 25.333c0.707 0 1.386-0.281 1.886-0.781s0.781-1.178 0.781-1.886-0.281-1.386-0.781-1.886c-0.5-0.5-1.178-0.781-1.886-0.781s-1.386 0.281-1.886 0.781c-0.5 0.5-0.781 1.178-0.781 1.886s0.281 1.386 0.781 1.886c0.5 0.5 1.178 0.781 1.886 0.781zM23.333 24c0.354 0 0.693-0.14 0.943-0.391s0.391-0.589 0.391-0.943c0-0.354-0.14-0.693-0.391-0.943s-0.589-0.391-0.943-0.391c-0.354 0-0.693 0.14-0.943 0.391s-0.391 0.589-0.391 0.943c0 0.354 0.14 0.693 0.391 0.943s0.589 0.391 0.943 0.391zM23.333 25.333c0.707 0 1.386-0.281 1.886-0.781s0.781-1.178 0.781-1.886-0.281-1.386-0.781-1.886c-0.5-0.5-1.178-0.781-1.886-0.781s-1.386 0.281-1.886 0.781c-0.5 0.5-0.781 1.178-0.781 1.886s0.281 1.386 0.781 1.886c0.5 0.5 1.178 0.781 1.886 0.781zM28.667 18.667h-9.333v-1.333h9.333v1.333zM10.667 18v-5.333h1.333v5.333h-1.333zM22 10.667c0.177 0 0.346 0.070 0.471 0.195s0.195 0.295 0.195 0.471v2h-1.333v-2c0-0.177 0.070-0.346 0.195-0.471s0.295-0.195 0.471-0.195z"></path>
<path d="M14 16h-5.333v-1.333h5.333v1.333zM23.333 13.333h-2.667v-1.333h2.667v1.333zM22 9c-0.177 0-0.346-0.070-0.471-0.195s-0.195-0.295-0.195-0.471v-1c0-0.177 0.070-0.346 0.195-0.471s0.295-0.195 0.471-0.195c0.177 0 0.346 0.070 0.471 0.195s0.195 0.295 0.195 0.471v1c0 0.177-0.070 0.346-0.195 0.471s-0.295 0.195-0.471 0.195zM24.333 11.333c0-0.177 0.070-0.346 0.195-0.471s0.295-0.195 0.471-0.195h1c0.177 0 0.346 0.070 0.471 0.195s0.195 0.295 0.195 0.471c0 0.177-0.070 0.346-0.195 0.471s-0.295 0.195-0.471 0.195h-1c-0.177 0-0.346-0.070-0.471-0.195s-0.195-0.295-0.195-0.471zM23.839 9.447c-0.119-0.131-0.18-0.304-0.172-0.48s0.087-0.342 0.218-0.461l0.609-0.552c0.065-0.059 0.141-0.105 0.223-0.134s0.17-0.043 0.258-0.039 0.173 0.026 0.253 0.063c0.079 0.037 0.15 0.090 0.209 0.155s0.104 0.141 0.134 0.223c0.029 0.083 0.042 0.17 0.038 0.258s-0.026 0.173-0.064 0.253c-0.038 0.079-0.091 0.15-0.156 0.209l-0.609 0.552c-0.065 0.059-0.141 0.104-0.223 0.134s-0.17 0.042-0.257 0.038-0.173-0.026-0.252-0.063c-0.079-0.038-0.15-0.090-0.209-0.155z"></path>
</symbol>
<symbol id="icon-location" viewBox="0 0 32 32">
<path d="M16 0c-5.523 0-10 4.477-10 10 0 10 10 22 10 22s10-12 10-22c0-5.523-4.477-10-10-10zM16 16c-3.314 0-6-2.686-6-6s2.686-6 6-6 6 2.686 6 6-2.686 6-6 6z"></path>
</symbol>
<symbol id="icon-mobile" viewBox="0 0 32 32">
<path d="M23 0h-14c-1.65 0-3 1.35-3 3v26c0 1.65 1.35 3 3 3h14c1.65 0 3-1.35 3-3v-26c0-1.65-1.35-3-3-3zM12 1.5h8v1h-8v-1zM16 30c-1.105 0-2-0.895-2-2s0.895-2 2-2 2 0.895 2 2-0.895 2-2 2zM24 24h-16v-20h16v20z"></path>
</symbol>
<symbol id="icon-mail2" viewBox="0 0 32 32">
<path d="M26.667 0h-21.333c-2.934 0-5.334 2.4-5.334 5.334v21.332c0 2.936 2.4 5.334 5.334 5.334h21.333c2.934 0 5.333-2.398 5.333-5.334v-21.332c0-2.934-2.399-5.334-5.333-5.334zM26.667 4c0.25 0 0.486 0.073 0.688 0.198l-11.355 9.388-11.355-9.387c0.202-0.125 0.439-0.198 0.689-0.198h21.333zM5.334 28c-0.060 0-0.119-0.005-0.178-0.013l7.051-9.78-0.914-0.914-7.293 7.293v-19.098l12 14.512 12-14.512v19.098l-7.293-7.293-0.914 0.914 7.051 9.78c-0.058 0.008-0.117 0.013-0.177 0.013h-21.333z"></path>
</symbol>
</defs>
</svg>
